# Blender v2.82 (sub 7) OBJ File: ''
# www.blender.org
mtllib carhood.mtl
o Plane.002
v -0.000000 2.000000 -1.830451
v 0.000000 0.000000 -1.830451
v -0.000000 2.000000 -3.050752
v 0.000000 0.000000 -3.050752
v -0.763214 3.020608 -1.830451
v -0.763214 3.020608 -3.050752
v -2.163298 3.418737 -1.881415
v -2.163298 3.418737 -3.101717
v -0.000000 2.000000 -3.050752
v 0.000000 0.000000 -3.050752
v -0.000000 2.000000 -4.271053
v 0.000000 0.000000 -4.271053
v -0.763214 3.020608 -3.050752
v -0.763214 3.020608 -4.271053
v -2.163298 3.418737 -3.101716
v -2.163298 3.418737 -4.322017
v -0.000000 2.000000 -4.271053
v 0.000000 0.000000 -4.271053
v -0.763214 3.020608 -4.271053
v -2.163298 3.418737 -4.322017
v -0.000000 2.000000 -4.271053
v -0.763214 3.020608 -4.271053
v -0.000000 2.000000 -4.271053
v 0.000000 0.000000 -4.271053
v -0.763214 3.020608 -4.271053
v -2.163298 3.418737 -4.322017
v -0.000000 2.000000 -4.271053
v -0.763214 3.020608 -4.271053
v -0.000000 2.000000 -6.271052
v 0.000000 0.000000 -6.271052
v -0.763214 3.020608 -6.271052
v -2.163298 3.418737 -6.322017
v -0.000000 2.000000 -6.271052
v -0.763214 3.020608 -6.271052
v -0.000000 2.000000 -6.271052
v 0.000000 0.000000 -6.271052
v -0.763214 3.020608 -6.271052
v -2.163298 3.418737 -6.322017
v -0.000000 2.000000 -6.271052
v -0.763214 3.020608 -6.271052
v -0.608576 2.437837 -8.105985
v -0.608575 1.291116 -8.105985
v -1.046172 3.023013 -8.105985
v -1.848925 3.251284 -8.135205
v -0.608576 2.437837 -8.105985
v -1.046172 3.023013 -8.105985
v -0.573835 2.493808 -10.599464
v -0.573835 -0.120483 -10.599464
v -1.571466 3.827891 -10.599464
v -3.401579 4.348304 -10.666082
v -0.573835 2.493808 -10.599464
v -1.571466 3.827891 -10.599464
v -3.595879 2.178591 -11.361860
v -3.595879 -0.435700 -11.361860
v -4.593511 3.512674 -11.361860
v -6.423624 4.033086 -11.428478
v -3.595879 2.178591 -11.361860
v -4.593511 3.512674 -11.361860
v -5.628971 1.309923 -10.747957
v -5.628971 -1.304368 -10.747957
v -6.626602 2.644006 -10.747957
v -8.456715 3.164419 -10.814575
v -5.628971 1.309923 -10.747957
v -6.626602 2.644006 -10.747957
v -5.511669 3.732888 -1.170772
v -5.511669 3.732888 -2.391073
v -5.511669 3.732888 -2.391072
v -5.511669 3.732888 -3.611373
v -5.511669 3.732888 -3.611373
v -5.511669 3.732888 -5.611373
v -5.511669 3.732888 -5.611373
v -5.197296 3.565435 -7.424562
v -6.749951 4.662455 -9.955439
v -9.771996 4.347237 -10.717834
v -11.805086 3.478570 -10.103932
v -7.797212 3.775235 -1.876599
v -7.797212 3.775235 -3.096900
v -7.797212 3.775235 -3.096900
v -7.797212 3.775235 -4.317201
v -7.797212 3.775235 -4.317201
v -7.797212 3.775235 -6.317201
v -7.797212 3.775235 -6.317201
v -7.482839 3.607782 -8.130389
v -9.035493 4.704802 -10.661266
v -12.057538 4.389584 -11.423662
v -14.090629 3.520917 -10.809761
v -9.758140 5.010691 -2.173836
v -9.758140 5.010691 -3.394136
v -9.758140 5.010691 -3.394136
v -9.758140 5.010691 -4.614437
v -9.758140 5.010691 -4.614437
v -9.758140 5.010691 -6.614437
v -9.758140 5.010691 -6.614437
v -9.443767 4.843238 -8.427626
v -10.996421 5.940258 -10.958502
v -14.018466 5.625041 -11.720900
v -16.051558 4.756372 -11.106997
v -0.271706 0.457148 -8.306581
v -0.461291 0.043329 -9.544190
v -0.172649 0.072915 -7.383081
v -8.456715 3.164419 -10.814575
v -11.805086 3.478570 -10.103932
v -12.183326 2.788476 -10.148223
v -14.468868 2.830823 -10.854052
v -16.429796 4.066279 -11.151287
v -9.161054 2.803128 -10.762510
v -12.183326 2.788476 -10.148223
v -12.928082 2.019746 -10.132854
v -15.213624 2.062093 -10.838682
v -17.174551 3.297549 -11.135920
v -10.457778 2.162454 -10.615301
v -12.928082 2.019746 -10.132854
v -12.863588 -0.962404 -10.664173
v -15.149131 -0.920057 -11.370003
v -17.110058 0.315399 -11.667238
v -10.067185 -1.148498 -11.242979
v -12.863588 -0.962404 -10.664173
v -0.000000 2.000000 -3.050752
v 0.000000 0.000000 -3.050752
v -0.000000 2.000000 -1.830451
v 0.000000 0.000000 -1.830451
v -0.763214 3.020608 -3.050752
v -0.763214 3.020608 -1.830451
v -2.163298 3.418737 -2.999788
v -2.163298 3.418737 -1.779487
v -0.000000 2.000000 -1.830452
v 0.000000 0.000000 -1.830452
v -0.000000 2.000000 -0.610151
v 0.000000 0.000000 -0.610151
v -0.763214 3.020608 -1.830452
v -0.763214 3.020608 -0.610151
v -2.163298 3.418737 -1.779488
v -2.163298 3.418737 -0.559187
v -0.000000 2.000000 -0.610151
v 0.000000 0.000000 -0.610151
v -0.763214 3.020608 -0.610151
v -2.163298 3.418737 -0.559187
v -0.000000 2.000000 -0.610151
v -0.763214 3.020608 -0.610151
v -0.000000 2.000000 -0.610151
v 0.000000 0.000000 -0.610151
v -0.763214 3.020608 -0.610151
v -2.163298 3.418737 -0.559187
v -0.000000 2.000000 -0.610151
v -0.763214 3.020608 -0.610151
v -0.000000 2.000000 1.389849
v 0.000000 0.000000 1.389849
v -0.763214 3.020608 1.389849
v -2.163298 3.418737 1.440814
v -0.000000 2.000000 1.389849
v -0.763214 3.020608 1.389849
v -0.000000 2.000000 1.389849
v 0.000000 0.000000 1.389849
v -0.763214 3.020608 1.389849
v -2.163298 3.418737 1.440814
v -0.000000 2.000000 1.389849
v -0.763214 3.020608 1.389849
v -0.608576 2.437837 3.224781
v -0.608575 1.291116 3.224781
v -1.046172 3.023013 3.224781
v -1.848925 3.251284 3.254002
v -0.608576 2.437837 3.224781
v -1.046172 3.023013 3.224781
v -0.573835 2.493808 5.718260
v -0.573835 -0.120483 5.718260
v -1.571466 3.827891 5.718260
v -3.401579 4.348304 5.784878
v -0.573835 2.493808 5.718260
v -1.571466 3.827891 5.718260
v -3.595879 2.178591 6.480657
v -3.595879 -0.435700 6.480657
v -4.593511 3.512674 6.480657
v -6.423624 4.033086 6.547275
v -3.595879 2.178591 6.480657
v -4.593511 3.512674 6.480657
v -5.628971 1.309923 5.866754
v -5.628971 -1.304368 5.866754
v -6.626602 2.644006 5.866754
v -8.456715 3.164419 5.933372
v -5.628971 1.309923 5.866754
v -6.626602 2.644006 5.866754
v -5.511669 3.732888 -3.710432
v -5.511669 3.732888 -2.490131
v -5.511669 3.732888 -2.490131
v -5.511669 3.732888 -1.269830
v -5.511669 3.732888 -1.269830
v -5.511669 3.732888 0.730170
v -5.511669 3.732888 0.730170
v -5.197296 3.565435 2.543358
v -6.749951 4.662455 5.074234
v -9.771996 4.347237 5.836631
v -11.805086 3.478570 5.222729
v -7.797212 3.775235 -3.004604
v -7.797212 3.775235 -1.784303
v -7.797212 3.775235 -1.784304
v -7.797212 3.775235 -0.564003
v -7.797212 3.775235 -0.564003
v -7.797212 3.775235 1.435997
v -7.797212 3.775235 1.435997
v -7.482839 3.607782 3.249186
v -9.035493 4.704802 5.780062
v -12.057538 4.389584 6.542459
v -14.090629 3.520917 5.928557
v -9.758140 5.010691 -2.707368
v -9.758140 5.010691 -1.487067
v -9.758140 5.010691 -1.487067
v -9.758140 5.010691 -0.266767
v -9.758140 5.010691 -0.266767
v -9.758140 5.010691 1.733233
v -9.758140 5.010691 1.733233
v -9.443767 4.843238 3.546422
v -10.996421 5.940258 6.077298
v -14.018466 5.625041 6.839695
v -16.051558 4.756372 6.225792
v -0.271706 0.457148 3.425378
v -0.461291 0.043329 4.662987
v -0.172649 0.072915 2.501878
v -8.456715 3.164419 5.933372
v -11.805086 3.478570 5.222729
v -12.183326 2.788476 5.267019
v -14.468868 2.830823 5.972847
v -16.429796 4.066279 6.270084
v -9.161054 2.803128 5.881306
v -12.183326 2.788476 5.267019
v -12.928082 2.019746 5.251651
v -15.213624 2.062093 5.957479
v -17.174551 3.297549 6.254715
v -10.457778 2.162454 5.734098
v -12.928082 2.019746 5.251651
v -12.863588 -0.962404 5.782970
v -15.149131 -0.920057 6.488799
v -17.110058 0.315399 6.786034
v -10.067185 -1.148498 6.361775
v -12.863588 -0.962404 5.782970
vt 1.000000 0.000000
vt 0.000000 1.000000
vt 0.000000 0.000000
vt 0.000000 0.000000
vt 0.000000 1.000000
vt 0.000000 0.000000
vt 1.000000 0.000000
vt 0.000000 1.000000
vt 0.000000 0.000000
vt 0.000000 0.000000
vt 0.000000 1.000000
vt 0.000000 0.000000
vt 0.000000 1.000000
vt 0.000000 1.000000
vt 0.000000 1.000000
vt 0.000000 1.000000
vt 1.000000 1.000000
vt 0.000000 1.000000
vt 0.000000 1.000000
vt 0.000000 1.000000
vt 0.000000 1.000000
vt 0.000000 1.000000
vt 0.000000 1.000000
vt 1.000000 1.000000
vt 0.000000 1.000000
vt 0.000000 1.000000
vt 0.000000 1.000000
vt 0.000000 1.000000
vt 0.000000 1.000000
vt 0.000000 1.000000
vt 0.000000 1.000000
vt 0.000000 1.000000
vt 0.000000 1.000000
vt 1.000000 1.000000
vt 0.000000 1.000000
vt 0.000000 1.000000
vt 0.000000 1.000000
vt 0.000000 1.000000
vt 0.000000 1.000000
vt 1.000000 1.000000
vt 0.000000 1.000000
vt 0.000000 1.000000
vt 0.000000 1.000000
vt 0.000000 1.000000
vt 0.000000 1.000000
vt 0.000000 1.000000
vt 0.000000 1.000000
vt 0.000000 1.000000
vt 0.000000 1.000000
vt 0.000000 1.000000
vt 1.000000 1.000000
vt 0.000000 1.000000
vt 0.000000 1.000000
vt 0.000000 1.000000
vt 0.000000 1.000000
vt 0.000000 1.000000
vt 1.000000 1.000000
vt 0.000000 1.000000
vt 1.000000 1.000000
vt 1.000000 1.000000
vt 0.000000 1.000000
vt 0.000000 0.000000
vt 0.000000 1.000000
vt 0.000000 1.000000
vt 0.000000 1.000000
vt 0.000000 1.000000
vt 0.000000 1.000000
vt 0.000000 0.000000
vt 0.000000 1.000000
vt 0.000000 1.000000
vt 0.000000 0.000000
vt 0.000000 1.000000
vt 0.000000 1.000000
vt 0.000000 1.000000
vt 0.000000 1.000000
vt 0.000000 0.000000
vt 0.000000 1.000000
vt 0.000000 1.000000
vt 0.000000 1.000000
vt 0.000000 1.000000
vt 0.000000 1.000000
vt 0.000000 0.000000
vt 0.000000 1.000000
vt 0.000000 1.000000
vt 0.000000 1.000000
vt 0.000000 1.000000
vt 0.000000 1.000000
vt 0.000000 1.000000
vt 0.000000 0.000000
vt 0.000000 1.000000
vt 0.000000 1.000000
vt 0.000000 1.000000
vt 0.000000 1.000000
vt 0.000000 1.000000
vt 0.000000 1.000000
vt 0.000000 1.000000
vt 0.000000 1.000000
vt 0.000000 1.000000
vt 0.000000 1.000000
vt 0.000000 1.000000
vt 0.000000 1.000000
vt 0.000000 1.000000
vt 0.000000 1.000000
vt 0.000000 1.000000
vt 0.000000 1.000000
vt 0.000000 1.000000
vt 0.000000 1.000000
vt 1.000000 0.000000
vt 0.000000 0.000000
vt 0.000000 0.000000
vt 0.000000 0.000000
vt 0.000000 1.000000
vt 0.000000 1.000000
vt 1.000000 0.000000
vt 0.000000 0.000000
vt 0.000000 0.000000
vt 0.000000 0.000000
vt 0.000000 1.000000
vt 0.000000 1.000000
vt 0.000000 1.000000
vt 0.000000 1.000000
vt 1.000000 1.000000
vt 1.000000 1.000000
vt 0.000000 1.000000
vt 0.000000 1.000000
vt 0.000000 1.000000
vt 0.000000 1.000000
vt 0.000000 1.000000
vt 1.000000 1.000000
vt 0.000000 1.000000
vt 0.000000 1.000000
vt 0.000000 1.000000
vt 0.000000 1.000000
vt 0.000000 1.000000
vt 0.000000 1.000000
vt 0.000000 1.000000
vt 0.000000 1.000000
vt 0.000000 1.000000
vt 0.000000 1.000000
vt 1.000000 1.000000
vt 1.000000 1.000000
vt 0.000000 1.000000
vt 0.000000 1.000000
vt 0.000000 1.000000
vt 0.000000 1.000000
vt 0.000000 1.000000
vt 1.000000 1.000000
vt 0.000000 1.000000
vt 0.000000 1.000000
vt 0.000000 1.000000
vt 0.000000 1.000000
vt 0.000000 1.000000
vt 0.000000 1.000000
vt 0.000000 1.000000
vt 0.000000 1.000000
vt 0.000000 1.000000
vt 0.000000 1.000000
vt 0.000000 1.000000
vt 1.000000 1.000000
vt 0.000000 1.000000
vt 0.000000 1.000000
vt 0.000000 1.000000
vt 0.000000 1.000000
vt 0.000000 1.000000
vt 1.000000 1.000000
vt 1.000000 1.000000
vt 1.000000 1.000000
vt 0.000000 1.000000
vt 0.000000 1.000000
vt 0.000000 1.000000
vt 0.000000 1.000000
vt 0.000000 1.000000
vt 0.000000 1.000000
vt 0.000000 1.000000
vt 0.000000 1.000000
vt 0.000000 0.000000
vt 0.000000 0.000000
vt 0.000000 1.000000
vt 0.000000 1.000000
vt 0.000000 1.000000
vt 0.000000 1.000000
vt 0.000000 1.000000
vt 0.000000 0.000000
vt 0.000000 0.000000
vt 0.000000 1.000000
vt 0.000000 1.000000
vt 0.000000 1.000000
vt 0.000000 1.000000
vt 0.000000 1.000000
vt 0.000000 0.000000
vt 0.000000 1.000000
vt 0.000000 1.000000
vt 0.000000 1.000000
vt 0.000000 1.000000
vt 0.000000 1.000000
vt 0.000000 1.000000
vt 0.000000 0.000000
vt 0.000000 1.000000
vt 0.000000 1.000000
vt 0.000000 1.000000
vt 0.000000 1.000000
vt 0.000000 1.000000
vt 0.000000 1.000000
vt 0.000000 1.000000
vt 0.000000 1.000000
vt 0.000000 1.000000
vt 0.000000 1.000000
vt 0.000000 1.000000
vt 0.000000 1.000000
vt 0.000000 1.000000
vt 0.000000 1.000000
vt 0.000000 1.000000
vt 0.000000 1.000000
vt 0.000000 1.000000
vt 1.000000 1.000000
vt 0.000000 1.000000
vt 1.000000 1.000000
vt 0.000000 1.000000
vt 1.000000 1.000000
vt 1.000000 1.000000
vt 1.000000 1.000000
vt 0.000000 1.000000
vt 0.000000 1.000000
vt 0.000000 1.000000
vt 0.000000 1.000000
vt 1.000000 1.000000
vt 0.000000 1.000000
vt 1.000000 1.000000
vt 1.000000 1.000000
vt 0.000000 1.000000
vt 0.000000 1.000000
vt 0.000000 1.000000
vt 0.000000 1.000000
vt 0.000000 1.000000
vn 1.0000 0.0000 0.0000
vn 0.9489 0.3155 0.0000
vn 0.5701 0.8215 0.0000
vn 0.5639 0.8258 0.0000
vn 0.1796 0.9837 0.0000
vn 0.6532 0.2172 0.7254
vn 0.3901 0.5712 0.7222
vn 0.1666 0.8624 0.4780
vn 0.0000 0.0000 1.0000
vn 0.5662 0.4234 0.7072
vn 0.5663 0.4234 0.7071
vn 0.1912 0.6724 0.7150
vn 0.1628 0.8917 0.4224
vn 0.7071 0.0000 0.7071
vn 0.1955 0.6876 0.6993
vn 0.5140 0.3844 0.7668
vn 0.6166 0.4611 0.6381
vn 0.1857 0.6496 0.7372
vn 0.1491 0.9145 0.3759
vn 0.7716 0.0766 0.6314
vn 0.8608 0.0000 0.5088
vn 0.7996 0.5979 -0.0566
vn 0.8002 0.5984 -0.0389
vn 0.2699 0.9595 0.0805
vn 0.2117 0.9696 0.1224
vn 0.9826 0.1166 -0.1444
vn 0.9903 0.0000 -0.1386
vn 0.7113 0.5319 -0.4593
vn 0.5374 0.4019 -0.7414
vn 0.2717 0.9613 0.0457
vn 0.2047 0.9138 -0.3507
vn 0.8054 0.0000 -0.5926
vn 0.0528 0.0395 -0.9978
vn -0.0583 -0.0436 -0.9973
vn 0.1220 0.3084 -0.9434
vn -0.0555 0.3544 -0.9334
vn 0.7388 0.0428 -0.6726
vn 0.0244 0.0000 -0.9997
vn -0.2200 -0.1645 -0.9615
vn -0.0889 -0.4277 -0.8995
vn -0.3370 -0.3927 -0.8557
vn -0.0625 0.0000 -0.9980
vn -0.2890 0.0000 -0.9573
vn 0.9534 0.2882 -0.0892
vn 0.9094 0.3970 -0.1235
vn 0.0551 0.9985 0.0000
vn 0.0573 0.9984 0.0000
vn 0.0687 0.9919 0.1070
vn 0.0589 0.9949 -0.0816
vn -0.0117 0.9984 0.0552
vn 0.0540 -0.2904 -0.9554
vn 0.2517 0.9678 0.0000
vn 0.2364 -0.8200 -0.5212
vn 0.1663 -0.3862 -0.9073
vn 0.1753 0.9679 0.1798
vn 0.5437 0.4034 -0.7360
vn 0.2936 0.9552 -0.0373
vn 0.3609 0.3666 -0.8575
vn 0.5315 0.8469 0.0139
vn 0.3244 0.9459 0.0000
vn 0.5330 0.8461 0.0000
vn 0.1164 -0.2623 -0.9579
vn -0.0284 -0.2762 -0.9607
vn 0.5293 0.8478 0.0316
vn -0.1030 0.1230 0.9870
vn -0.6362 0.5644 -0.5260
vn -0.1862 0.2085 -0.9601
vn -0.1978 0.1724 -0.9649
vn 0.1123 -0.0603 -0.9918
vn 0.0410 -0.1717 -0.9843
vn 0.2888 -0.1556 -0.9446
vn 0.2073 -0.1492 -0.9668
vn -0.1960 0.1719 -0.9654
vn -0.1983 0.1694 -0.9654
vn 0.2245 0.0344 -0.9738
vn 0.1601 0.0168 -0.9869
vn 0.2918 -0.1027 -0.9509
vn -0.1932 0.1639 -0.9673
vn 0.2544 0.1750 -0.9511
vn 0.2935 0.1738 -0.9400
vn 0.2780 0.1743 -0.9446
vn 0.4568 0.3416 0.8214
vn 0.1783 0.6236 0.7611
vn 0.5965 0.0592 0.8004
vn 0.5457 0.4080 0.7319
vn 0.7996 0.5979 0.0566
vn 0.1420 0.8712 0.4698
vn 0.2699 0.9595 -0.0805
vn 0.6233 0.0000 0.7819
vn 0.9826 0.1166 0.1444
vn 0.8002 0.5984 0.0389
vn 0.7113 0.5319 0.4593
vn 0.2117 0.9696 -0.1224
vn 0.2717 0.9613 -0.0457
vn 0.8054 0.0000 0.5926
vn 0.9903 0.0000 0.1386
vn 0.5374 0.4019 0.7414
vn 0.0528 0.0395 0.9978
vn 0.2047 0.9138 0.3507
vn 0.1220 0.3084 0.9434
vn 0.0244 0.0000 0.9997
vn 0.7388 0.0428 0.6726
vn -0.0583 -0.0436 0.9973
vn -0.2200 -0.1645 0.9615
vn -0.0555 0.3544 0.9334
vn -0.0889 -0.4277 0.8995
vn -0.2890 0.0000 0.9573
vn -0.0625 0.0000 0.9980
vn 0.9397 0.3000 0.1640
vn 0.9094 0.3970 0.1235
vn 0.1896 0.9818 0.0000
vn 0.0687 0.9919 -0.1070
vn -0.0117 0.9984 -0.0552
vn 0.0540 -0.2904 0.9554
vn -0.1326 -0.1545 0.9790
vn 0.1663 -0.3862 0.9073
vn 0.1224 -0.4248 0.8969
vn 0.1753 0.9679 -0.1798
vn 0.5437 0.4034 0.7360
vn 0.2936 0.9552 0.0373
vn 0.0589 0.9949 0.0816
vn 0.3609 0.3666 0.8575
vn 0.5315 0.8469 -0.0139
vn -0.0284 -0.2762 0.9607
vn 0.1164 -0.2623 0.9579
vn 0.5293 0.8478 -0.0316
vn -0.0497 0.0594 0.9970
vn -0.1096 0.0973 0.9892
vn -0.1862 0.2085 0.9601
vn 0.1123 -0.0603 0.9918
vn 0.0410 -0.1717 0.9843
vn 0.2888 -0.1556 0.9446
vn -0.1978 0.1724 0.9649
vn -0.1960 0.1719 0.9654
vn 0.2245 0.0344 0.9738
vn 0.2073 -0.1492 0.9668
vn 0.2918 -0.1027 0.9509
vn -0.1932 0.1639 0.9673
vn -0.1983 0.1694 0.9654
vn 0.2544 0.1750 0.9511
vn 0.1601 0.0168 0.9869
vn 0.2935 0.1738 0.9400
vn 0.9397 0.3000 -0.1640
vn -0.1897 0.1612 -0.9685
vn 0.9534 0.2882 0.0892
vn -0.1897 0.1612 0.9685
vn 0.2780 0.1743 0.9446
usemtl None
s 1
f 2/1/1 3/2/2 1/3/2
f 3/2/2 5/4/3 1/3/2
f 6/5/4 7/6/5 5/4/3
f 10/7/1 11/8/6 9/9/2
f 11/8/6 13/10/3 9/9/2
f 14/11/7 15/12/5 13/10/3
f 16/13/8 19/14/9 20/15/9
f 14/11/7 17/16/9 19/14/9
f 11/8/6 18/17/9 17/16/9
f 19/14/9 21/18/9 22/19/9
f 22/19/9 27/20/10 28/21/11
f 20/15/9 25/22/12 26/23/13
f 17/16/9 24/24/14 23/25/14
f 27/20/10 34/26/10 28/21/11
f 26/23/13 31/27/15 32/28/8
f 24/24/14 29/29/14 23/25/14
f 34/26/10 39/30/16 40/31/17
f 32/28/8 37/32/18 38/33/19
f 29/29/14 36/34/20 35/35/21
f 40/31/17 45/36/22 46/37/23
f 38/33/19 43/38/24 44/39/25
f 35/35/21 42/40/26 41/41/27
f 46/37/23 51/42/28 52/43/29
f 44/39/25 49/44/30 50/45/31
f 42/40/26 47/46/32 41/41/27
f 52/43/29 57/47/33 58/48/34
f 50/45/31 55/49/35 56/50/36
f 48/51/37 53/52/38 47/46/32
f 58/48/34 63/53/39 64/54/39
f 56/50/36 61/55/40 62/56/41
f 54/57/42 59/58/43 53/52/38
f 42/40/26 100/59/44 98/60/45
f 7/6/5 66/61/46 65/62/47
f 38/33/19 72/63/48 71/64/49
f 50/45/31 72/63/48 44/39/25
f 56/50/36 73/65/50 50/45/31
f 62/56/41 74/66/51 56/50/36
f 15/12/5 68/67/46 67/68/47
f 26/23/13 70/69/46 69/70/47
f 68/67/46 78/71/52 67/68/47
f 75/72/53 85/73/54 74/66/51
f 73/65/50 83/74/55 72/63/48
f 70/69/46 80/75/52 69/70/47
f 66/61/46 76/76/52 65/62/47
f 74/66/51 84/77/56 73/65/50
f 72/63/48 82/78/57 71/64/49
f 85/73/54 95/79/58 84/77/56
f 83/74/55 93/80/59 82/78/57
f 79/81/60 89/82/61 78/71/52
f 86/83/62 96/84/63 85/73/54
f 84/77/56 94/85/64 83/74/55
f 81/86/60 91/87/61 80/75/52
f 77/88/60 87/89/61 76/76/52
f 75/72/53 101/90/65 102/91/66
f 102/91/66 106/92/67 107/93/68
f 86/83/62 105/94/69 97/95/70
f 86/83/62 103/96/71 104/97/72
f 107/93/68 111/98/73 112/99/74
f 105/94/69 109/100/75 110/101/76
f 104/97/72 108/102/77 109/100/75
f 111/98/73 117/103/78 112/99/74
f 109/100/75 115/104/79 110/101/76
f 109/100/75 113/105/80 114/106/81
f 120/107/2 119/108/1 118/109/2
f 122/110/3 120/107/2 118/109/2
f 124/111/5 123/112/4 122/110/3
f 128/113/6 127/114/1 126/115/2
f 130/116/3 128/113/6 126/115/2
f 132/117/5 131/118/7 130/116/3
f 133/119/8 136/120/9 131/118/7
f 131/118/7 134/121/9 128/113/6
f 128/113/6 135/122/9 129/123/14
f 136/120/9 138/124/9 134/121/9
f 139/125/9 144/126/10 138/124/9
f 137/127/9 142/128/12 136/120/9
f 134/121/9 141/129/14 135/122/9
f 151/130/10 144/126/10 145/131/11
f 143/132/13 148/133/15 142/128/12
f 146/134/14 141/129/14 140/135/14
f 151/130/10 156/136/82 150/137/11
f 149/138/8 154/139/83 148/133/15
f 146/134/14 153/140/84 147/141/14
f 157/142/85 162/143/86 156/136/82
f 155/144/87 160/145/88 154/139/83
f 152/146/89 159/147/90 153/140/84
f 163/148/91 168/149/92 162/143/86
f 161/150/93 166/151/94 160/145/88
f 164/152/95 159/147/90 158/153/96
f 169/154/97 174/155/98 168/149/92
f 167/156/99 172/157/100 166/151/94
f 170/158/101 165/159/102 164/152/95
f 175/160/103 180/161/104 174/155/98
f 173/162/105 178/163/106 172/157/100
f 176/164/107 171/165/108 170/158/101
f 159/147/90 216/166/109 215/167/110
f 124/111/5 183/168/46 125/169/111
f 155/144/87 189/170/112 161/150/93
f 189/170/112 167/156/99 161/150/93
f 190/171/113 173/162/105 167/156/99
f 191/172/114 179/173/115 173/162/105
f 132/117/5 185/174/46 133/119/8
f 143/132/13 187/175/46 149/138/8
f 195/176/52 185/174/46 184/177/47
f 202/178/116 192/179/117 191/172/114
f 200/180/118 190/171/113 189/170/112
f 197/181/52 187/175/46 186/182/47
f 193/183/52 183/168/46 182/184/47
f 201/185/119 191/172/114 190/171/113
f 199/186/120 189/170/112 188/187/121
f 212/188/122 202/178/116 201/185/119
f 210/189/123 200/180/118 199/186/120
f 206/190/61 196/191/60 195/176/52
f 213/192/124 203/193/125 202/178/116
f 211/194/126 201/185/119 200/180/118
f 208/195/61 198/196/60 197/181/52
f 204/197/61 194/198/60 193/183/52
f 192/179/117 218/199/127 179/173/115
f 219/200/128 223/201/129 218/199/127
f 222/202/130 203/193/125 214/203/131
f 203/193/125 220/204/132 192/179/117
f 224/205/133 228/206/134 223/201/129
f 222/202/130 226/207/135 221/208/136
f 221/208/136 225/209/137 220/204/132
f 234/210/138 228/206/134 229/211/139
f 232/212/140 226/207/135 227/213/141
f 226/207/135 230/214/142 225/209/137
f 2/1/1 4/215/1 3/2/2
f 3/2/2 6/5/4 5/4/3
f 6/5/4 8/216/111 7/6/5
f 10/7/1 12/217/14 11/8/6
f 11/8/6 14/11/7 13/10/3
f 14/11/7 16/13/8 15/12/5
f 16/13/8 14/11/7 19/14/9
f 14/11/7 11/8/6 17/16/9
f 11/8/6 12/217/14 18/17/9
f 19/14/9 17/16/9 21/18/9
f 22/19/9 21/18/9 27/20/10
f 20/15/9 19/14/9 25/22/12
f 17/16/9 18/17/9 24/24/14
f 27/20/10 33/218/11 34/26/10
f 26/23/13 25/22/12 31/27/15
f 24/24/14 30/219/14 29/29/14
f 34/26/10 33/218/11 39/30/16
f 32/28/8 31/27/15 37/32/18
f 29/29/14 30/219/14 36/34/20
f 40/31/17 39/30/16 45/36/22
f 38/33/19 37/32/18 43/38/24
f 35/35/21 36/34/20 42/40/26
f 46/37/23 45/36/22 51/42/28
f 44/39/25 43/38/24 49/44/30
f 42/40/26 48/51/37 47/46/32
f 52/43/29 51/42/28 57/47/33
f 50/45/31 49/44/30 55/49/35
f 48/51/37 54/57/42 53/52/38
f 58/48/34 57/47/33 63/53/39
f 56/50/36 55/49/35 61/55/40
f 54/57/42 60/220/43 59/58/43
f 42/40/26 36/34/20 100/59/44
f 98/60/45 99/221/143 42/40/26
f 99/221/143 48/51/37 42/40/26
f 7/6/5 8/216/111 66/61/46
f 38/33/19 44/39/25 72/63/48
f 50/45/31 73/65/50 72/63/48
f 56/50/36 74/66/51 73/65/50
f 62/56/41 75/72/53 74/66/51
f 15/12/5 16/13/8 68/67/46
f 26/23/13 32/28/8 70/69/46
f 68/67/46 79/81/60 78/71/52
f 75/72/53 86/83/62 85/73/54
f 73/65/50 84/77/56 83/74/55
f 70/69/46 81/86/60 80/75/52
f 66/61/46 77/88/60 76/76/52
f 74/66/51 85/73/54 84/77/56
f 72/63/48 83/74/55 82/78/57
f 85/73/54 96/84/63 95/79/58
f 83/74/55 94/85/64 93/80/59
f 79/81/60 90/222/61 89/82/61
f 86/83/62 97/95/70 96/84/63
f 84/77/56 95/79/58 94/85/64
f 81/86/60 92/223/61 91/87/61
f 77/88/60 88/224/61 87/89/61
f 75/72/53 62/56/41 101/90/65
f 102/91/66 101/90/65 106/92/67
f 86/83/62 104/97/72 105/94/69
f 86/83/62 75/72/53 103/96/71
f 107/93/68 106/92/67 111/98/73
f 105/94/69 104/97/72 109/100/75
f 104/97/72 103/96/71 108/102/77
f 111/98/73 116/225/144 117/103/78
f 109/100/75 114/106/81 115/104/79
f 109/100/75 108/102/77 113/105/80
f 120/107/2 121/226/1 119/108/1
f 122/110/3 123/112/4 120/107/2
f 124/111/5 125/169/111 123/112/4
f 128/113/6 129/123/14 127/114/1
f 130/116/3 131/118/7 128/113/6
f 132/117/5 133/119/8 131/118/7
f 133/119/8 137/127/9 136/120/9
f 131/118/7 136/120/9 134/121/9
f 128/113/6 134/121/9 135/122/9
f 136/120/9 139/125/9 138/124/9
f 139/125/9 145/131/11 144/126/10
f 137/127/9 143/132/13 142/128/12
f 134/121/9 140/135/14 141/129/14
f 151/130/10 150/137/11 144/126/10
f 143/132/13 149/138/8 148/133/15
f 146/134/14 147/141/14 141/129/14
f 151/130/10 157/142/85 156/136/82
f 149/138/8 155/144/87 154/139/83
f 146/134/14 152/146/89 153/140/84
f 157/142/85 163/148/91 162/143/86
f 155/144/87 161/150/93 160/145/88
f 152/146/89 158/153/96 159/147/90
f 163/148/91 169/154/97 168/149/92
f 161/150/93 167/156/99 166/151/94
f 164/152/95 165/159/102 159/147/90
f 169/154/97 175/160/103 174/155/98
f 167/156/99 173/162/105 172/157/100
f 170/158/101 171/165/108 165/159/102
f 175/160/103 181/227/104 180/161/104
f 173/162/105 179/173/115 178/163/106
f 176/164/107 177/228/107 171/165/108
f 159/147/90 165/159/102 216/166/109
f 215/167/110 217/229/145 159/147/90
f 217/229/145 153/140/84 159/147/90
f 124/111/5 182/184/47 183/168/46
f 155/144/87 188/187/121 189/170/112
f 189/170/112 190/171/113 167/156/99
f 190/171/113 191/172/114 173/162/105
f 191/172/114 192/179/117 179/173/115
f 132/117/5 184/177/47 185/174/46
f 143/132/13 186/182/47 187/175/46
f 195/176/52 196/191/60 185/174/46
f 202/178/116 203/193/125 192/179/117
f 200/180/118 201/185/119 190/171/113
f 197/181/52 198/196/60 187/175/46
f 193/183/52 194/198/60 183/168/46
f 201/185/119 202/178/116 191/172/114
f 199/186/120 200/180/118 189/170/112
f 212/188/122 213/192/124 202/178/116
f 210/189/123 211/194/126 200/180/118
f 206/190/61 207/230/61 196/191/60
f 213/192/124 214/203/131 203/193/125
f 211/194/126 212/188/122 201/185/119
f 208/195/61 209/231/61 198/196/60
f 204/197/61 205/232/61 194/198/60
f 192/179/117 219/200/128 218/199/127
f 219/200/128 224/205/133 223/201/129
f 222/202/130 221/208/136 203/193/125
f 203/193/125 221/208/136 220/204/132
f 224/205/133 229/211/139 228/206/134
f 222/202/130 227/213/141 226/207/135
f 221/208/136 226/207/135 225/209/137
f 234/210/138 233/233/146 228/206/134
f 232/212/140 231/234/147 226/207/135
f 226/207/135 231/234/147 230/214/142
